<svg width="43" height="50" viewBox="0 0 43 50" fill="none" xmlns="http://www.w3.org/2000/svg">
<g clip-path="url(#clip0_10_291)">
<path d="M14.5433 44.8408C10.3024 43.1741 6.61107 40.046 4.30009 35.7095C-0.853143 26.0395 2.80833 14.023 12.4783 8.86986C21.8956 3.85115 33.5388 7.19289 38.9004 16.303C36.3611 22.1893 32.3091 28.4091 26.957 34.1983C23.0084 38.4693 18.7708 42.0531 14.5433 44.8408Z" fill="#1A73E8"/>
<path d="M0.916905 49.5303C-1.29127 47.8697 0.839469 42.3588 3.59656 38.6184L4.44984 39.8231C3.42502 42.2427 1.6385 47.1621 8.97452 41.4893C16.3105 35.8166 28.604 20.0082 33.8818 10.4732C38.104 2.84521 33.5376 4.65693 30.7987 6.41044L29.5975 5.76455C32.3804 3.06791 37.2285 -0.179842 39.5486 0.841081C44.5815 3.05573 40.8336 17.4585 29.5159 31.4244C18.1981 45.3902 4.03238 51.873 0.916905 49.5303Z" fill="#1A73E8"/>
<path d="M41.5363 24.2218C42.3894 32.0456 38.5096 39.9601 31.1394 43.8878C28.6321 45.224 25.967 45.9676 23.3046 46.1674C25.8702 41.3847 29.3292 36.4772 33.5765 31.8108C36.1413 28.9931 38.8206 26.4532 41.5363 24.2218Z" fill="#1A73E8"/>
</g>
<defs>
<clipPath id="clip0_10_291">
<rect width="42.0635" height="50" fill="white"/>
</clipPath>
</defs>
</svg>
