<svg width="50" height="50" viewBox="0 0 50 50" fill="none" xmlns="http://www.w3.org/2000/svg">
<path d="M35.4395 23.7793C35.7422 23.7402 36.0449 23.7402 36.3477 23.7793C36.5137 23.4082 36.543 22.7539 36.3965 22.0606C36.1816 21.0156 35.8789 20.3809 35.2734 20.4785C34.668 20.5762 34.6387 21.3379 34.8633 22.3828C34.9707 22.959 35.1953 23.4668 35.4395 23.7793ZM30.1953 24.6094C30.6348 24.8047 30.8984 24.9316 31.0059 24.8145C31.1914 24.6289 30.6641 23.8965 29.8242 23.5352C28.8281 23.125 27.6953 23.2617 26.8262 23.8965C26.5332 24.1113 26.2598 24.4043 26.2988 24.5898C26.3867 24.9512 27.2754 24.3262 28.5156 24.2481C29.1895 24.1992 29.7559 24.4141 30.1953 24.6094ZM29.3164 25.1074C28.4277 25.2441 27.8516 25.7422 27.998 26.0938C28.0859 26.1231 28.1152 26.1719 28.5059 26.0156C29.0918 25.791 29.7168 25.7324 30.3418 25.8203C30.625 25.8496 30.7617 25.8691 30.8301 25.7715C30.957 25.5664 30.2637 25 29.3164 25.1074ZM34.6094 26.7871C34.9414 26.1133 33.5449 25.4199 33.2129 26.1035C32.8809 26.7773 34.2871 27.4609 34.6094 26.7871ZM36.1426 24.7852C35.3906 24.7754 35.3613 26.3281 36.1133 26.3477C36.875 26.3477 36.9043 24.7949 36.1426 24.7852ZM14.7363 32.5C14.6094 32.5293 14.1504 32.6465 13.9062 32.2656C13.3984 31.4844 14.9902 30.2734 14.1992 28.7598C13.3105 27.0508 11.4746 27.4316 10.7715 28.2129C9.92188 29.1504 9.92188 30.5176 10.2832 30.5664C10.7031 30.625 10.6836 29.9316 11.0059 29.4238C11.3867 28.8379 12.1582 28.6719 12.7441 29.0527C12.7441 29.0527 12.7539 29.0527 12.7539 29.0625C13.8867 29.8047 12.8906 30.8008 12.9785 31.8652C13.1152 33.4961 14.7852 33.4668 15.0879 32.7441C15.127 32.6758 15.1172 32.5781 15.0684 32.5195C15.0684 32.627 15.127 32.4121 14.7363 32.5ZM44.0723 30.8301C43.7402 29.6777 43.8184 29.9316 43.4082 28.8184C43.6523 28.457 44.9023 26.4648 43.1055 24.5898C42.0898 23.5254 39.7852 22.9688 39.082 22.7734C38.9355 21.6602 39.541 17.0313 36.9727 14.6484C39.0039 12.5391 40.2734 10.2148 40.2734 8.22266C40.2637 4.39454 35.5566 3.23243 29.7559 5.63477L28.5254 6.15235C28.5156 6.14258 26.2988 3.97461 26.2695 3.94532C19.668 -1.8164 -1.01562 21.1621 5.5957 26.7481L7.04102 27.9688C6.65039 29.0137 6.51367 30.1367 6.64063 31.25C6.97266 34.5215 10.166 37.168 13.252 37.1582C18.9062 50.1856 39.4727 50.2051 44.7949 37.4512C44.9609 37.0117 45.6836 35.0391 45.6836 33.3008C45.6836 31.5625 44.6973 30.8301 44.0723 30.8301ZM13.1348 35.5469C10.8984 35.4883 8.48633 33.4766 8.25195 31.0938C7.64649 25.0977 15.5176 23.7305 16.4746 29.8828C16.9238 32.7832 16.0156 35.6055 13.1348 35.5469ZM11.3281 24.3652C9.84375 24.6582 8.53516 25.4981 7.73438 26.6602C7.25586 26.2598 6.36719 25.4883 6.21094 25.1953C4.94141 22.7637 7.60742 18.0469 9.47266 15.3906C14.082 8.8086 21.2988 3.82813 24.6484 4.72657C25.1953 4.88282 26.9922 6.9629 26.9922 6.9629C26.9922 6.9629 23.6523 8.81837 20.5566 11.4063C16.3672 14.6289 13.2129 19.2969 11.3281 24.3652ZM34.707 34.2676C34.707 34.2676 31.2109 34.7852 27.9004 33.5742C28.5059 31.6016 30.5469 34.1699 37.334 32.2266C38.8281 31.7969 40.791 30.957 42.3242 29.7461C42.6562 30.5078 42.8906 31.3086 43.0176 32.1191C43.3789 32.0508 44.4141 32.0703 44.1406 33.8867C43.8184 35.8301 42.9883 37.4121 41.6016 38.8672C40.7324 39.8047 39.6973 40.5859 38.5547 41.1524C37.9199 41.4844 37.2461 41.7676 36.5625 41.9922C31.3281 43.7012 25.9668 41.8262 24.2285 37.7832C24.0918 37.4707 23.9746 37.1582 23.877 36.8262C23.1445 34.1602 23.7695 30.9668 25.7227 28.9551C25.8398 28.8281 25.9668 28.6719 25.9668 28.4863C25.9473 28.3203 25.8887 28.1641 25.7812 28.0371C25.0977 27.041 22.7246 25.3516 23.2031 22.0801C23.5449 19.7266 25.5957 18.0762 27.5195 18.1738L28.0078 18.2031C28.8379 18.252 29.5605 18.3594 30.2441 18.3887C31.3867 18.4375 32.4219 18.2715 33.6328 17.2559C34.043 16.9141 34.375 16.6113 34.9316 16.5234C35.3906 16.4063 35.8691 16.4941 36.2598 16.7383C37.2363 17.3926 37.373 18.9648 37.4219 20.1172C37.4512 20.7715 37.5293 22.3731 37.5586 22.8223C37.6172 23.8672 37.8906 24.0137 38.4473 24.1895C38.7598 24.2969 39.0527 24.3652 39.4727 24.4922C40.7617 24.8535 41.5234 25.2246 42.0215 25.6934C42.2754 25.9375 42.4316 26.2598 42.4902 26.6016C42.6465 27.7148 41.6309 29.0918 38.9355 30.332C34.3652 32.4512 29.7656 31.7481 29.1016 31.6699C27.1289 31.4063 26.0059 33.9551 27.1875 35.6934C29.4043 38.9649 39.1699 37.6465 42.002 33.6035C42.0703 33.5059 42.0117 33.4473 41.9336 33.5059C37.8418 36.2988 32.4316 37.2461 29.3555 36.0547C28.8867 35.8692 27.9102 35.4199 27.793 34.4238C32.0605 35.7422 34.7461 34.4922 34.7461 34.4922C34.7461 34.4922 34.9609 34.2383 34.707 34.2676ZM19.8438 15.3613C21.4844 13.4668 23.4961 11.8164 25.3125 10.8984C25.3418 10.8789 25.3906 10.8887 25.4102 10.9277C25.4199 10.9473 25.4199 10.9766 25.4102 10.9961C25.2637 11.2598 24.9902 11.8164 24.9023 12.2363C24.8926 12.2754 24.9219 12.3145 24.9609 12.3242C24.9805 12.334 25 12.3242 25.0195 12.3145C26.1426 11.5527 28.1055 10.7227 29.8145 10.625C29.8535 10.625 29.8926 10.6543 29.8926 10.6934C29.8926 10.7227 29.8828 10.7422 29.8633 10.7617C29.5801 10.9766 29.3262 11.2305 29.1113 11.5234C29.0918 11.5527 29.0918 11.6016 29.1309 11.6211C29.1406 11.6309 29.1602 11.6309 29.1699 11.6309C30.3711 11.6406 32.0703 12.0606 33.1836 12.6856C33.2617 12.7246 33.2031 12.8711 33.125 12.8516C26.3184 11.2891 21.0742 14.668 19.9609 15.4785C19.9219 15.4981 19.8828 15.4883 19.8535 15.459C19.8242 15.4199 19.8242 15.3809 19.8438 15.3613Z" fill="#1A73E8"/>
</svg>
